<?xml version="1.0" standalone="no"?>
<!DOCTYPE svg PUBLIC "-//W3C//DTD SVG 20010904//EN"
 "http://www.w3.org/TR/2001/REC-SVG-20010904/DTD/svg10.dtd">
<svg version="1.0" xmlns="http://www.w3.org/2000/svg"
 width="700.000000pt" height="700.000000pt" viewBox="0 0 700.000000 700.000000"
 preserveAspectRatio="xMidYMid meet">
<metadata>
Created by potrace 1.14, written by Peter Selinger 2001-2017
</metadata>
<g transform="translate(0.000000,700.000000) scale(0.100000,-0.100000)"
fill="#000000" stroke="none">
<path d="M3223 6981 c-28 -9 -55 -20 -59 -24 -4 -4 -14 -7 -23 -7 -9 0 -56
-23 -104 -51 -66 -39 -85 -54 -75 -61 10 -8 9 -9 -3 -5 -20 7 -92 -50 -83 -65
4 -6 2 -8 -3 -5 -28 17 -207 -232 -188 -262 3 -6 1 -10 -6 -9 -14 4 -65 -129
-71 -188 -3 -23 -8 -46 -12 -53 -4 -7 -2 -19 6 -28 11 -14 11 -15 0 -9 -22 13
-10 -235 15 -314 2 -8 4 -17 5 -20 0 -3 10 -32 22 -66 20 -55 21 -60 5 -61
-28 -2 -152 -35 -171 -45 -13 -6 -18 -5 -19 4 -22 324 -157 614 -384 826 -411
383 -1026 434 -1493 124 -256 -170 -428 -417 -509 -730 -25 -97 -27 -123 -27
-277 0 -191 16 -275 80 -442 207 -539 786 -855 1361 -742 29 6 54 10 55 9 2 0
28 8 59 19 l56 19 1 -37 c2 -46 8 -98 16 -133 3 -16 8 -40 11 -55 7 -35 21
-82 48 -156 15 -45 24 -57 36 -52 12 5 13 3 4 -6 -26 -26 109 -240 225 -355
38 -38 78 -76 88 -84 66 -55 88 -69 97 -63 6 3 7 1 3 -6 -4 -7 2 -15 16 -20
19 -7 5 -13 -80 -40 -57 -18 -147 -54 -200 -81 -89 -46 -98 -49 -119 -35 -12
8 -29 15 -38 15 -8 0 -15 5 -15 10 0 6 -9 10 -20 10 -11 0 -20 4 -20 8 0 10
-61 33 -71 26 -5 -3 -9 -1 -9 5 0 9 -71 34 -125 44 -11 2 -27 7 -35 10 -72 30
-450 42 -450 15 0 -5 -4 -7 -10 -3 -31 19 -313 -77 -401 -137 -14 -9 -29 -15
-32 -11 -4 3 -9 -2 -13 -11 -3 -9 -12 -16 -19 -16 -23 0 -143 -99 -225 -185
-46 -49 -130 -152 -130 -161 0 -3 -8 -18 -19 -32 -47 -67 -129 -258 -147 -344
-20 -98 -24 -142 -23 -306 1 -114 7 -207 15 -241 83 -356 308 -648 625 -814
138 -72 345 -136 370 -113 9 8 10 8 6 0 -5 -8 6 -14 31 -17 46 -6 318 -1 352
7 94 21 160 41 160 48 0 4 6 5 13 2 15 -5 140 47 220 91 26 15 53 25 61 22 10
-4 13 -42 14 -166 0 -88 4 -166 8 -173 5 -7 7 -21 6 -30 -2 -10 2 -18 8 -18 6
0 8 -5 5 -10 -7 -11 11 -105 24 -125 3 -5 6 -14 8 -20 8 -35 36 -101 46 -107
7 -4 9 -8 4 -8 -10 0 63 -140 85 -162 10 -10 17 -21 17 -24 -4 -16 129 -171
143 -166 4 1 7 -1 6 -5 -5 -14 42 -54 55 -47 7 4 9 3 4 -1 -7 -8 20 -45 34
-45 4 0 21 -12 38 -27 53 -46 234 -146 245 -135 3 3 6 0 6 -6 0 -7 9 -12 19
-12 11 0 22 -4 26 -9 3 -6 13 -10 23 -11 58 -5 751 -9 770 -5 14 4 20 10 16
17 -4 7 -3 8 5 4 19 -12 157 44 143 59 -4 5 -2 5 5 1 11 -6 50 10 63 25 3 3
20 14 38 23 17 9 32 21 32 26 0 6 6 10 14 10 25 0 226 185 226 207 0 7 4 13 9
13 23 0 146 193 135 212 -4 6 -3 8 3 5 6 -4 22 20 38 54 37 84 74 200 61 192
-6 -4 -6 0 1 8 19 24 42 171 30 189 -10 13 -9 13 4 0 8 -8 26 -40 39 -70 73
-169 256 -383 420 -492 212 -140 397 -198 645 -203 224 -5 389 31 574 125 87
44 201 119 245 162 7 7 34 32 60 56 75 69 182 218 236 327 153 313 166 668 35
991 l-33 82 32 23 c17 13 37 28 45 34 55 41 207 207 253 277 58 87 141 254
143 288 0 3 3 10 7 15 22 35 29 149 26 400 -4 261 -5 273 -30 345 -27 77 -65
163 -96 215 -33 57 -66 110 -71 115 -4 3 -24 28 -46 55 -61 77 -160 169 -241
225 -40 27 -77 50 -82 50 -6 0 -12 3 -14 8 -4 9 -124 72 -138 72 -7 0 -26 6
-43 14 -77 34 -236 71 -268 63 -10 -3 -21 -1 -24 4 -3 4 -62 8 -130 7 -68 0
-123 -4 -121 -7 2 -3 -14 -5 -36 -5 -46 1 -204 -37 -273 -66 -81 -35 -159 -72
-191 -93 -32 -20 -41 -22 -52 -11 -6 7 -12 15 -12 18 0 10 -60 93 -99 136 -22
25 -41 48 -41 52 0 4 -9 10 -20 13 -11 3 -20 13 -20 21 0 8 -3 14 -7 14 -5 0
-21 13 -38 28 -91 85 -323 214 -425 237 -3 1 -24 7 -48 14 -23 6 -47 9 -52 6
-6 -3 -10 -2 -10 3 0 12 -115 28 -215 31 -44 1 -81 3 -82 5 -3 2 -10 47 -18
116 -10 81 -30 152 -40 143 -4 -5 -5 -3 -1 4 9 15 -3 65 -14 58 -5 -3 -12 0
-16 6 -4 8 -3 9 4 5 7 -4 12 -2 12 4 0 21 -92 204 -132 263 -22 32 -38 60 -36
62 1 2 26 15 53 30 28 14 68 36 89 49 57 34 177 146 170 158 -4 6 -2 8 3 5 14
-9 32 13 97 117 50 80 63 118 34 100 -7 -4 -8 -2 -4 4 4 6 12 9 20 6 10 -4 35
47 42 89 1 4 3 9 4 12 1 3 4 10 5 15 1 6 3 11 5 13 1 1 3 9 5 17 2 8 6 29 10
45 4 17 8 86 10 155 3 168 -20 270 -97 425 -30 61 -79 135 -89 135 -5 0 -9 5
-9 11 0 26 -206 210 -237 211 -4 0 -19 8 -33 17 -28 20 -60 35 -76 36 -6 0
-18 5 -25 11 -8 6 -27 15 -44 19 -16 5 -37 10 -45 13 -8 3 -112 6 -230 8 -177
2 -224 -1 -267 -15z m347 -21 c0 -5 -2 -10 -4 -10 -3 0 -8 5 -11 10 -3 6 -1
10 4 10 6 0 11 -4 11 -10z m-367 -155 c-3 -9 -8 -14 -10 -11 -3 3 -2 9 2 15 9
16 15 13 8 -4z m-76 -10 c0 -8 -4 -12 -9 -9 -5 3 -6 10 -3 15 9 13 12 11 12
-6z m158 -64 c3 -5 2 -12 -3 -15 -5 -3 -9 1 -9 9 0 17 3 19 12 6z m-84 -24
c-10 -9 -11 -8 -5 6 3 10 9 15 12 12 3 -3 0 -11 -7 -18z m299 17 c0 -8 -19
-13 -24 -6 -3 5 1 9 9 9 8 0 15 -2 15 -3z m310 2 c0 -3 -4 -8 -10 -11 -5 -3
-10 -1 -10 4 0 6 5 11 10 11 6 0 10 -2 10 -4z m-800 -86 c0 -5 -5 -10 -11 -10
-5 0 -7 5 -4 10 3 6 8 10 11 10 2 0 4 -4 4 -10z m275 1 c3 -5 2 -12 -3 -15 -5
-3 -9 1 -9 9 0 17 3 19 12 6z m209 1 c3 -5 -1 -9 -9 -9 -8 0 -12 4 -9 9 3 4 7
8 9 8 2 0 6 -4 9 -8z m476 4 c0 -3 -4 -8 -10 -11 -5 -3 -10 -1 -10 4 0 6 5 11
10 11 6 0 10 -2 10 -4z m-1205 -86 c3 -5 1 -10 -4 -10 -6 0 -11 5 -11 10 0 6
2 10 4 10 3 0 8 -4 11 -10z m805 6 c0 -3 -4 -8 -10 -11 -5 -3 -10 -1 -10 4 0
6 5 11 10 11 6 0 10 -2 10 -4z m-765 -85 c3 -5 2 -12 -3 -15 -5 -3 -9 1 -9 9
0 17 3 19 12 6z m205 -1 c0 -5 -5 -10 -11 -10 -5 0 -7 5 -4 10 3 6 8 10 11 10
2 0 4 -4 4 -10z m250 4 c0 -8 -19 -13 -24 -6 -3 5 1 9 9 9 8 0 15 -2 15 -3z
m870 -4 c0 -5 -5 -10 -11 -10 -5 0 -7 5 -4 10 3 6 8 10 11 10 2 0 4 -4 4 -10z
m-640 -36 c0 -8 -19 -13 -24 -6 -3 5 1 9 9 9 8 0 15 -2 15 -3z m474 -2 c3 -5
-1 -9 -9 -9 -8 0 -12 4 -9 9 3 4 7 8 9 8 2 0 6 -4 9 -8z m-1279 -42 c3 -5 1
-10 -4 -10 -6 0 -11 5 -11 10 0 6 2 10 4 10 3 0 8 -4 11 -10z m569 2 c3 -5 -1
-9 -9 -9 -8 0 -12 4 -9 9 3 4 7 8 9 8 2 0 6 -4 9 -8z m476 -2 c0 -5 -2 -10 -4
-10 -3 0 -8 5 -11 10 -3 6 -1 10 4 10 6 0 11 -4 11 -10z m-325 -69 c3 -5 2
-12 -3 -15 -5 -3 -9 1 -9 9 0 17 3 19 12 6z m-475 -11 c0 -5 -5 -10 -11 -10
-5 0 -7 5 -4 10 3 6 8 10 11 10 2 0 4 -4 4 -10z m554 2 c3 -5 -1 -9 -9 -9 -8
0 -12 4 -9 9 3 4 7 8 9 8 2 0 6 -4 9 -8z m203 -7 c0 -8 -4 -12 -9 -9 -5 3 -6
10 -3 15 9 13 12 11 12 -6z m-917 -75 c0 -5 -5 -10 -11 -10 -5 0 -7 5 -4 10 3
6 8 10 11 10 2 0 4 -4 4 -10z m1210 4 c0 -8 -19 -13 -24 -6 -3 5 1 9 9 9 8 0
15 -2 15 -3z m70 0 c0 -8 -19 -13 -24 -6 -3 5 1 9 9 9 8 0 15 -2 15 -3z
m-1360 -38 c0 -2 -7 -7 -16 -10 -8 -3 -12 -2 -9 4 6 10 25 14 25 6z m1045 -6
c-3 -5 -12 -10 -18 -10 -7 0 -6 4 3 10 19 12 23 12 15 0z m-85 -40 c0 -5 -2
-10 -4 -10 -3 0 -8 5 -11 10 -3 6 -1 10 4 10 6 0 11 -4 11 -10z m277 -5 c0 -8
-4 -12 -9 -9 -5 3 -6 10 -3 15 9 13 12 11 12 -6z m83 3 c0 -4 -4 -8 -9 -8 -6
0 -12 4 -15 8 -3 5 1 9 9 9 8 0 15 -4 15 -9z m75 3 c3 -5 2 -12 -3 -15 -5 -3
-9 1 -9 9 0 17 3 19 12 6z m205 5 c0 -3 -4 -8 -10 -11 -5 -3 -10 -1 -10 4 0 6
5 11 10 11 6 0 10 -2 10 -4z m-1600 -42 c0 -8 -19 -13 -24 -6 -3 5 1 9 9 9 8
0 15 -2 15 -3z m1645 -4 c3 -6 -1 -7 -9 -4 -18 7 -21 14 -7 14 6 0 13 -4 16
-10z m-1165 -40 c0 -5 -5 -10 -11 -10 -5 0 -7 5 -4 10 3 6 8 10 11 10 2 0 4
-4 4 -10z m74 2 c3 -5 -1 -9 -9 -9 -8 0 -12 4 -9 9 3 4 7 8 9 8 2 0 6 -4 9 -8z
m641 -151 c3 -5 2 -12 -3 -15 -5 -3 -9 1 -9 9 0 17 3 19 12 6z m82 -6 c0 -8
-4 -12 -9 -9 -5 3 -6 10 -3 15 9 13 12 11 12 -6z m120 0 c0 -8 -4 -12 -9 -9
-5 3 -6 10 -3 15 9 13 12 11 12 -6z m-1162 -4 c3 -5 2 -12 -3 -15 -5 -3 -9 1
-9 9 0 17 3 19 12 6z m85 3 c0 -8 -19 -13 -24 -6 -3 5 1 9 9 9 8 0 15 -2 15
-3z m640 2 c0 -3 -4 -8 -10 -11 -5 -3 -10 -1 -10 4 0 6 5 11 10 11 6 0 10 -2
10 -4z m90 -2 c0 -8 -19 -13 -24 -6 -3 5 1 9 9 9 8 0 15 -2 15 -3z m67 -9 c0
-8 -4 -12 -9 -9 -5 3 -6 10 -3 15 9 13 12 11 12 -6z m-397 -69 c0 -3 -4 -8
-10 -11 -5 -3 -10 -1 -10 4 0 6 5 11 10 11 6 0 10 -2 10 -4z m560 -86 c0 -5
-2 -10 -4 -10 -3 0 -8 5 -11 10 -3 6 -1 10 4 10 6 0 11 -4 11 -10z m250 4 c0
-8 -19 -13 -24 -6 -3 5 1 9 9 9 8 0 15 -2 15 -3z m-730 -84 c0 -5 -5 -10 -11
-10 -5 0 -7 5 -4 10 3 6 8 10 11 10 2 0 4 -4 4 -10z m77 -5 c0 -8 -4 -12 -9
-9 -5 3 -6 10 -3 15 9 13 12 11 12 -6z m-3 -73 c3 -5 -1 -9 -9 -9 -8 0 -12 4
-9 9 3 4 7 8 9 8 2 0 6 -4 9 -8z m566 4 c0 -3 -4 -8 -10 -11 -5 -3 -10 -1 -10
4 0 6 5 11 10 11 6 0 10 -2 10 -4z m-240 -40 c0 -2 -7 -7 -16 -10 -8 -3 -12
-2 -9 4 6 10 25 14 25 6z m85 -6 c-3 -5 -12 -10 -18 -10 -7 0 -6 4 3 10 19 12
23 12 15 0z m-170 -119 c3 -5 2 -12 -3 -15 -5 -3 -9 1 -9 9 0 17 3 19 12 6z
m-1590 -1321 c3 -6 -1 -7 -9 -4 -18 7 -21 14 -7 14 6 0 13 -4 16 -10z m673
-45 c-3 -3 -9 2 -12 12 -6 14 -5 15 5 6 7 -7 10 -15 7 -18z m941 -1824 c42
-11 110 -22 151 -26 41 -4 87 -8 103 -10 15 -2 27 1 27 7 0 7 4 7 13 -1 8 -6
22 -9 33 -7 10 2 52 7 93 10 41 4 78 9 81 11 4 2 20 7 36 9 53 10 75 15 95 21
14 5 3 -16 -37 -72 -106 -147 -177 -318 -209 -500 -8 -47 -15 -87 -15 -89 0
-2 -24 42 -53 99 -58 111 -134 220 -148 211 -5 -3 -9 2 -9 11 0 24 -111 137
-128 130 -7 -2 -10 0 -7 5 6 10 -53 69 -71 70 -6 0 -19 9 -29 20 -10 11 -23
20 -29 20 -24 1 -53 36 -50 60 1 14 3 35 3 48 1 22 2 22 38 7 20 -9 71 -24
112 -34z m-375 -889 c3 -5 -1 -9 -9 -9 -8 0 -12 4 -9 9 3 4 7 8 9 8 2 0 6 -4
9 -8z m231 -1 c3 -5 2 -12 -3 -15 -5 -3 -9 1 -9 9 0 17 3 19 12 6z m-1361
-479 c3 -5 -1 -9 -9 -9 -8 0 -12 4 -9 9 3 4 7 8 9 8 2 0 6 -4 9 -8z m1197
-169 c13 -16 12 -17 -3 -4 -17 13 -22 21 -14 21 2 0 10 -8 17 -17z m-356 -32
c3 -5 2 -12 -3 -15 -5 -3 -9 1 -9 9 0 17 3 19 12 6z"/>
<path d="M5440 6703 c-88 -11 -231 -37 -279 -53 -101 -33 -253 -103 -272 -126
-6 -8 -16 -14 -21 -14 -17 0 -132 -93 -203 -164 -120 -121 -219 -269 -265
-399 -12 -34 -26 -71 -31 -82 -33 -77 -53 -213 -53 -365 -1 -215 27 -339 121
-540 14 -30 36 -69 49 -87 13 -17 24 -34 24 -38 0 -7 35 -56 70 -99 35 -44
192 -196 201 -196 4 0 14 -6 21 -13 45 -45 216 -136 328 -175 55 -20 169 -46
245 -57 53 -8 239 -8 290 0 240 37 448 125 614 259 57 46 181 178 223 238 87
123 175 316 192 422 4 21 8 41 10 45 17 29 27 310 14 396 -18 114 -44 216 -73
282 -92 206 -148 289 -293 431 -52 50 -101 92 -108 92 -8 0 -14 4 -14 9 0 20
-210 133 -316 169 -144 49 -356 78 -474 65z"/>
</g>
</svg>
